<svg width="72" height="72" viewBox="0 0 72 72" fill="none" xmlns="http://www.w3.org/2000/svg">
<rect width="72" height="72" rx="16" fill="#2B98BA"/>
<path fill-rule="evenodd" clip-rule="evenodd" d="M35.9771 8.61501C35.8312 8.61798 35.6857 8.64724 35.5504 8.70153L11.7771 18.1988C11.6278 18.2565 11.49 18.3443 11.3742 18.4554C11.2584 18.5665 11.1651 18.7005 11.1011 18.8473C11.0371 18.994 11.0027 19.1539 11.0002 19.3142C10.9976 19.4746 11.0273 19.6353 11.0867 19.7842C11.146 19.933 11.2355 20.07 11.3475 20.1841C11.4595 20.2986 11.5948 20.3906 11.7423 20.453C11.8899 20.5153 12.0498 20.5484 12.2101 20.5488C12.3705 20.5493 12.5308 20.5183 12.6788 20.4572L36.0004 11.1403L59.3221 20.4572C59.4701 20.5183 59.6304 20.5497 59.7907 20.5488C59.951 20.5484 60.1109 20.5153 60.2585 20.453C60.4061 20.3906 60.541 20.2986 60.6534 20.1841C60.7653 20.0696 60.8548 19.9326 60.9142 19.7842C60.9736 19.6353 61.0033 19.4745 61.0007 19.3142C60.9982 19.1539 60.9638 18.9944 60.8998 18.8473C60.8357 18.7005 60.7424 18.5661 60.6267 18.4554C60.5109 18.3443 60.373 18.2565 60.2237 18.1988L36.4504 8.70153C36.2999 8.6413 36.137 8.61162 35.975 8.61501H35.9771Z" fill="white"/>
<path fill-rule="evenodd" clip-rule="evenodd" d="M28.2331 20.1503C28.1372 20.1507 28.0418 20.1532 27.9459 20.1566C24.8821 20.2618 21.8454 21.4871 18.7579 23.2735C18.5742 23.3795 18.4194 23.5347 18.3134 23.7184C18.2074 23.902 18.151 24.1136 18.151 24.3257V26.2351H12.6544C12.4954 26.2351 12.3363 26.2669 12.1892 26.3275C12.042 26.3886 11.9071 26.4785 11.7947 26.5913C11.6823 26.7037 11.592 26.8386 11.5309 26.9858C11.4699 27.1329 11.4385 27.292 11.4385 27.451V60.9037C11.4385 61.0627 11.4703 61.2218 11.5309 61.369C11.592 61.5161 11.6819 61.651 11.7947 61.7634C11.9071 61.8758 12.042 61.9661 12.1892 62.0268C12.3363 62.0878 12.4954 62.1192 12.6544 62.1192H59.3498C59.5089 62.1192 59.6679 62.0874 59.8151 62.0268C59.9623 61.9657 60.0971 61.8758 60.2095 61.7634C60.3219 61.651 60.4122 61.5161 60.4729 61.369C60.534 61.2218 60.5653 61.0627 60.5653 60.9037V27.451C60.5653 27.292 60.5335 27.1329 60.4729 26.9858C60.4118 26.8386 60.3219 26.7037 60.2095 26.5913C60.0971 26.4789 59.9623 26.3886 59.8151 26.3275C59.6679 26.2665 59.5089 26.2351 59.3498 26.2351H53.8533V24.3257C53.8533 24.1137 53.7964 23.902 53.6908 23.7184C53.5848 23.5347 53.43 23.3795 53.2468 23.2735C50.1618 21.4867 47.1251 20.2618 44.0605 20.1562C41.2965 20.0612 38.5529 20.9425 36.0022 22.9995C33.5402 21.0138 30.8993 20.1236 28.2332 20.1499L28.2331 20.1503ZM28.4892 22.5814C30.6446 22.6038 32.6761 23.3282 34.7865 25.1502V54.2784C30.4364 52.8571 26.0997 50.1602 20.5829 50.254V25.0356C23.2532 23.5605 25.7406 22.6656 28.0295 22.5867C28.1835 22.5812 28.3366 22.5795 28.4893 22.5812L28.4892 22.5814ZM43.5169 22.5814C43.6696 22.5797 43.8227 22.5818 43.9767 22.5869C46.2665 22.6657 48.7535 23.5606 51.4211 25.0353V50.2537C45.9043 50.16 41.5676 52.857 37.2175 54.2781V25.15C39.3275 23.328 41.3607 22.6036 43.517 22.5811L43.5169 22.5814ZM13.8698 28.667H18.1504V51.5403C18.1504 51.7095 18.186 51.8783 18.2547 52.0331C18.3234 52.1879 18.4244 52.3278 18.5499 52.4411C18.675 52.5547 18.8243 52.6417 18.9851 52.6947C19.1458 52.7477 19.3172 52.7668 19.4855 52.7498C25.2255 52.1853 29.7649 55.5745 35.5664 57.0372C35.7971 57.1224 36.0537 57.1352 36.2916 57.0737C36.2988 57.0737 36.306 57.0677 36.3133 57.0677C42.1741 55.6224 46.7372 52.1806 52.5179 52.749C52.6863 52.7655 52.858 52.749 53.0184 52.6939C53.1787 52.6408 53.328 52.5539 53.4535 52.4402C53.5786 52.3266 53.68 52.1866 53.7487 52.0322C53.8174 51.8779 53.853 51.7086 53.853 51.5394V28.6651H58.1336V59.6857H13.8703L13.8698 28.667Z" fill="white"/>
<path d="M38.678 34.3926C38.4786 34.4482 38.3619 34.6551 38.4176 34.8546C38.4732 35.054 38.6801 35.1706 38.8796 35.115L38.678 34.3926ZM49.789 35.115C49.9885 35.1706 50.1953 35.054 50.2509 34.8546C50.3066 34.6551 50.19 34.4482 49.9905 34.3926L49.789 35.115ZM38.7788 34.7538C38.8796 35.115 38.8796 35.115 38.8795 35.115C38.8796 35.115 38.8796 35.115 38.8796 35.115C38.8797 35.115 38.8798 35.1149 38.8799 35.1149C38.8802 35.1148 38.8808 35.1147 38.8815 35.1145C38.8829 35.1141 38.8852 35.1135 38.8882 35.1126C38.8942 35.111 38.9033 35.1085 38.9153 35.1052C38.9395 35.0986 38.9755 35.0888 39.0222 35.0764C39.1158 35.0515 39.2524 35.0158 39.4236 34.9729C39.766 34.887 40.2458 34.7724 40.7945 34.6579C41.8988 34.4275 43.2565 34.2029 44.3343 34.2029V33.4529C43.1758 33.4529 41.7557 33.6912 40.6413 33.9237C40.0807 34.0407 39.5909 34.1577 39.2411 34.2454C39.0662 34.2893 38.926 34.3259 38.8293 34.3516C38.781 34.3645 38.7435 34.3746 38.7179 34.3816C38.7051 34.3851 38.6953 34.3878 38.6886 34.3896C38.6853 34.3906 38.6827 34.3913 38.681 34.3918C38.6801 34.392 38.6794 34.3922 38.6789 34.3923C38.6787 34.3924 38.6785 34.3925 38.6783 34.3925C38.6782 34.3925 38.6782 34.3925 38.6781 34.3926C38.6781 34.3926 38.678 34.3926 38.7788 34.7538ZM44.3343 34.2029C45.4121 34.2029 46.7697 34.4275 47.874 34.6579C48.4227 34.7724 48.9025 34.887 49.2449 34.9729C49.4161 35.0158 49.5527 35.0515 49.6463 35.0764C49.6931 35.0888 49.7291 35.0986 49.7532 35.1052C49.7653 35.1085 49.7744 35.111 49.7804 35.1126C49.7834 35.1135 49.7856 35.1141 49.787 35.1145C49.7878 35.1147 49.7883 35.1148 49.7886 35.1149C49.7888 35.1149 49.7889 35.115 49.7889 35.115C49.789 35.115 49.789 35.115 49.789 35.115C49.789 35.115 49.789 35.115 49.8897 34.7538C49.9905 34.3926 49.9904 34.3926 49.9904 34.3926C49.9904 34.3925 49.9903 34.3925 49.9902 34.3925C49.9901 34.3925 49.9899 34.3924 49.9896 34.3923C49.9892 34.3922 49.9885 34.392 49.9876 34.3918C49.9858 34.3913 49.9832 34.3906 49.9799 34.3896C49.9732 34.3878 49.9634 34.3851 49.9506 34.3816C49.925 34.3746 49.8875 34.3645 49.8392 34.3516C49.7425 34.3259 49.6024 34.2893 49.4274 34.2454C49.0776 34.1577 48.5878 34.0407 48.0272 33.9237C46.9128 33.6912 45.4928 33.4529 44.3343 33.4529V34.2029Z" fill="white"/>
<path d="M38.6776 43.6514C38.4781 43.707 38.3615 43.9139 38.4171 44.1133C38.4728 44.3128 38.6796 44.4294 38.8791 44.3738L38.6776 43.6514ZM49.7885 44.3738C49.988 44.4294 50.1948 44.3128 50.2504 44.1133C50.3061 43.9139 50.1895 43.707 49.99 43.6514L49.7885 44.3738ZM38.7783 44.0126C38.8791 44.3738 38.8791 44.3738 38.8791 44.3738C38.8791 44.3738 38.8791 44.3738 38.8791 44.3738C38.8792 44.3738 38.8793 44.3737 38.8794 44.3737C38.8798 44.3736 38.8803 44.3735 38.881 44.3733C38.8824 44.3729 38.8847 44.3722 38.8877 44.3714C38.8937 44.3698 38.9028 44.3673 38.9148 44.364C38.939 44.3574 38.975 44.3476 39.0218 44.3352C39.1153 44.3103 39.252 44.2746 39.4231 44.2316C39.7655 44.1458 40.2453 44.0312 40.794 43.9167C41.8983 43.6863 43.256 43.4617 44.3338 43.4617V42.7117C43.1753 42.7117 41.7552 42.95 40.6408 43.1825C40.0802 43.2995 39.5904 43.4164 39.2407 43.5042C39.0657 43.5481 38.9255 43.5847 38.8289 43.6104C38.7805 43.6233 38.743 43.6334 38.7174 43.6404C38.7047 43.6439 38.6948 43.6466 38.6882 43.6484C38.6848 43.6494 38.6822 43.6501 38.6805 43.6506C38.6796 43.6508 38.6789 43.651 38.6784 43.6511C38.6782 43.6512 38.678 43.6513 38.6778 43.6513C38.6778 43.6513 38.6777 43.6513 38.6777 43.6513C38.6776 43.6514 38.6776 43.6514 38.7783 44.0126ZM44.3338 43.4617C45.4116 43.4617 46.7693 43.6863 47.8735 43.9167C48.4222 44.0312 48.902 44.1458 49.2445 44.2316C49.4156 44.2746 49.5522 44.3103 49.6458 44.3352C49.6926 44.3476 49.7286 44.3574 49.7527 44.364C49.7648 44.3673 49.7739 44.3698 49.7799 44.3714C49.7829 44.3722 49.7851 44.3729 49.7866 44.3733C49.7873 44.3735 49.7878 44.3736 49.7881 44.3737C49.7883 44.3737 49.7884 44.3738 49.7884 44.3738C49.7885 44.3738 49.7885 44.3738 49.7885 44.3738C49.7885 44.3738 49.7885 44.3738 49.8892 44.0126C49.99 43.6514 49.99 43.6514 49.9899 43.6513C49.9899 43.6513 49.9898 43.6513 49.9897 43.6513C49.9896 43.6513 49.9894 43.6512 49.9892 43.6511C49.9887 43.651 49.988 43.6508 49.9871 43.6506C49.9853 43.6501 49.9828 43.6494 49.9794 43.6484C49.9727 43.6466 49.9629 43.6439 49.9501 43.6404C49.9246 43.6334 49.8871 43.6233 49.8387 43.6104C49.742 43.5847 49.6019 43.5481 49.4269 43.5042C49.0771 43.4164 48.5873 43.2995 48.0267 43.1825C46.9123 42.95 45.4923 42.7117 44.3338 42.7117V43.4617Z" fill="white"/>
<path d="M22.0115 34.3926C21.8121 34.4482 21.6954 34.6551 21.7511 34.8546C21.8067 35.054 22.0136 35.1706 22.2131 35.115L22.0115 34.3926ZM33.1225 35.115C33.322 35.1706 33.5288 35.054 33.5844 34.8546C33.6401 34.6551 33.5235 34.4482 33.324 34.3926L33.1225 35.115ZM22.1123 34.7538C22.2131 35.115 22.213 35.115 22.213 35.115C22.2131 35.115 22.2131 35.115 22.2131 35.115C22.2132 35.115 22.2133 35.1149 22.2134 35.1149C22.2137 35.1148 22.2143 35.1147 22.215 35.1145C22.2164 35.1141 22.2186 35.1135 22.2217 35.1126C22.2277 35.111 22.2368 35.1085 22.2488 35.1052C22.273 35.0986 22.309 35.0888 22.3557 35.0764C22.4493 35.0515 22.5859 35.0158 22.7571 34.9729C23.0995 34.887 23.5793 34.7724 24.128 34.6579C25.2323 34.4275 26.59 34.2029 27.6678 34.2029V33.4529C26.5093 33.4529 25.0892 33.6912 23.9748 33.9237C23.4142 34.0407 22.9244 34.1577 22.5746 34.2454C22.3997 34.2893 22.2595 34.3259 22.1628 34.3516C22.1145 34.3645 22.077 34.3746 22.0514 34.3816C22.0386 34.3851 22.0288 34.3878 22.0221 34.3896C22.0188 34.3906 22.0162 34.3913 22.0145 34.3918C22.0136 34.392 22.0129 34.3922 22.0124 34.3923C22.0122 34.3924 22.012 34.3925 22.0118 34.3925C22.0117 34.3925 22.0117 34.3925 22.0116 34.3926C22.0116 34.3926 22.0115 34.3926 22.1123 34.7538ZM27.6678 34.2029C28.7456 34.2029 30.1032 34.4275 31.2075 34.6579C31.7562 34.7724 32.236 34.887 32.5784 34.9729C32.7496 35.0158 32.8862 35.0515 32.9798 35.0764C33.0266 35.0888 33.0626 35.0986 33.0867 35.1052C33.0988 35.1085 33.1079 35.111 33.1139 35.1126C33.1169 35.1135 33.1191 35.1141 33.1205 35.1145C33.1213 35.1147 33.1218 35.1148 33.1221 35.1149C33.1223 35.1149 33.1224 35.115 33.1224 35.115C33.1225 35.115 33.1225 35.115 33.1225 35.115C33.1225 35.115 33.1225 35.115 33.2232 34.7538C33.324 34.3926 33.3239 34.3926 33.3239 34.3926C33.3239 34.3925 33.3238 34.3925 33.3237 34.3925C33.3236 34.3925 33.3234 34.3924 33.3231 34.3923C33.3226 34.3922 33.322 34.392 33.3211 34.3918C33.3193 34.3913 33.3167 34.3906 33.3134 34.3896C33.3067 34.3878 33.2969 34.3851 33.2841 34.3816C33.2585 34.3746 33.221 34.3645 33.1727 34.3516C33.076 34.3259 32.9359 34.2893 32.7609 34.2454C32.4111 34.1577 31.9213 34.0407 31.3607 33.9237C30.2463 33.6912 28.8263 33.4529 27.6678 33.4529V34.2029Z" fill="white"/>
<path d="M22.012 43.6514C21.8125 43.707 21.6959 43.9139 21.7516 44.1133C21.8072 44.3128 22.0141 44.4294 22.2136 44.3738L22.012 43.6514ZM33.1229 44.3738C33.3224 44.4294 33.5293 44.3128 33.5849 44.1133C33.6406 43.9139 33.524 43.707 33.3245 43.6514L33.1229 44.3738ZM22.1128 44.0126C22.2136 44.3738 22.2135 44.3738 22.2135 44.3738C22.2135 44.3738 22.2136 44.3738 22.2136 44.3738C22.2136 44.3738 22.2138 44.3737 22.2139 44.3737C22.2142 44.3736 22.2148 44.3735 22.2155 44.3733C22.2169 44.3729 22.2191 44.3722 22.2221 44.3714C22.2281 44.3698 22.2372 44.3673 22.2493 44.364C22.2735 44.3574 22.3095 44.3476 22.3562 44.3352C22.4498 44.3103 22.5864 44.2746 22.7576 44.2316C23.1 44.1458 23.5798 44.0312 24.1285 43.9167C25.2328 43.6863 26.5904 43.4617 27.6683 43.4617V42.7117C26.5098 42.7117 25.0897 42.95 23.9753 43.1825C23.4147 43.2995 22.9249 43.4164 22.5751 43.5042C22.4002 43.5481 22.26 43.5847 22.1633 43.6104C22.115 43.6233 22.0775 43.6334 22.0519 43.6404C22.0391 43.6439 22.0293 43.6466 22.0226 43.6484C22.0193 43.6494 22.0167 43.6501 22.0149 43.6506C22.0141 43.6508 22.0134 43.651 22.0129 43.6511C22.0126 43.6512 22.0124 43.6513 22.0123 43.6513C22.0122 43.6513 22.0122 43.6513 22.0121 43.6513C22.0121 43.6514 22.012 43.6514 22.1128 44.0126ZM27.6683 43.4617C28.7461 43.4617 30.1037 43.6863 31.208 43.9167C31.7567 44.0312 32.2365 44.1458 32.5789 44.2316C32.7501 44.2746 32.8867 44.3103 32.9803 44.3352C33.0271 44.3476 33.063 44.3574 33.0872 44.364C33.0993 44.3673 33.1084 44.3698 33.1144 44.3714C33.1174 44.3722 33.1196 44.3729 33.121 44.3733C33.1218 44.3735 33.1223 44.3736 33.1226 44.3737C33.1228 44.3737 33.1229 44.3738 33.1229 44.3738C33.123 44.3738 33.123 44.3738 33.123 44.3738C33.123 44.3738 33.1229 44.3738 33.2237 44.0126C33.3245 43.6514 33.3244 43.6514 33.3244 43.6513C33.3243 43.6513 33.3243 43.6513 33.3242 43.6513C33.3241 43.6513 33.3239 43.6512 33.3236 43.6511C33.3231 43.651 33.3224 43.6508 33.3216 43.6506C33.3198 43.6501 33.3172 43.6494 33.3139 43.6484C33.3072 43.6466 33.2974 43.6439 33.2846 43.6404C33.259 43.6334 33.2215 43.6233 33.1732 43.6104C33.0765 43.5847 32.9363 43.5481 32.7614 43.5042C32.4116 43.4164 31.9218 43.2995 31.3612 43.1825C30.2468 42.95 28.8268 42.7117 27.6683 42.7117V43.4617Z" fill="white"/>
</svg>
