<svg width="72" height="72" viewBox="0 0 72 72" fill="none" xmlns="http://www.w3.org/2000/svg">
<rect width="72" height="72" rx="16" fill="#FE4572"/>
<path d="M47.0229 11H15.5744C15.1111 11 14.6665 11.1841 14.3389 11.5117C14.0114 11.8392 13.8273 12.2838 13.8273 12.7471V14.4943H12.0801C11.6168 14.4943 11.1723 14.6784 10.8447 15.0059C10.5171 15.3335 10.333 15.7781 10.333 16.2414V59.9198C10.333 60.3831 10.5171 60.8277 10.8447 61.1553C11.1723 61.4829 11.6168 61.667 12.0801 61.667H43.5286C43.9919 61.667 44.4365 61.4829 44.7641 61.1553C45.0917 60.8277 45.2757 60.3831 45.2757 59.9198V58.1727H47.0229C47.4862 58.1727 47.9308 57.9886 48.2584 57.661C48.5859 57.3335 48.77 56.8889 48.77 56.4256V12.7471C48.77 12.2838 48.5859 11.8392 48.2584 11.5117C47.9308 11.1841 47.4862 11 47.0229 11ZM43.5286 59.9198H12.0801V16.2414H43.5286V59.9198ZM47.0229 56.4256H45.2757V16.2414C45.2757 15.7781 45.0917 15.3335 44.7641 15.0059C44.4365 14.6784 43.9919 14.4943 43.5286 14.4943H15.5744V12.7471H47.0229V56.4256Z" fill="white"/>
<path d="M60.6505 22.9674L57.5056 20.6088V18.4249C57.5056 17.1765 56.8395 16.0229 55.7585 15.3986C54.6775 14.7747 53.3453 14.7747 52.2642 15.3986C51.1832 16.023 50.5171 17.1766 50.5171 18.4249V52.4941C50.5171 52.6524 50.5604 52.808 50.6419 52.9441L53.2626 57.3119C53.4205 57.5744 53.7048 57.7351 54.0114 57.7351C54.3179 57.7351 54.6022 57.5744 54.7601 57.3119L57.3808 52.9441C57.4623 52.808 57.5056 52.6524 57.5056 52.4941V22.7927L59.2528 24.1031V33.2756C59.2528 33.758 59.6439 34.1491 60.1263 34.1491C60.6088 34.1491 60.9999 33.758 60.9999 33.2756V23.6663C60.9999 23.3914 60.8704 23.1324 60.6505 22.9674ZM55.7585 48.1262H52.2642V21.9192H55.7585V48.1262ZM52.2642 18.4249C52.2642 17.8005 52.5973 17.2238 53.1378 16.9118C53.6783 16.5998 54.3444 16.5998 54.8849 16.9118C55.4254 17.2238 55.7585 17.8005 55.7585 18.4249V20.172H52.2642V18.4249ZM55.7585 52.2525L54.0114 55.1649L52.2642 52.2525V49.8736H55.7585V52.2525Z" fill="white"/>
<path d="M39.161 24.1035H29.5518C29.0694 24.1035 28.6782 24.4947 28.6782 24.9771C28.6782 25.4595 29.0694 25.8507 29.5518 25.8507H39.161C39.6435 25.8507 40.0346 25.4595 40.0346 24.9771C40.0346 24.4947 39.6435 24.1035 39.161 24.1035Z" fill="white"/>
<path d="M39.161 37.207H29.5518C29.0694 37.207 28.6782 37.5982 28.6782 38.0806C28.6782 38.563 29.0694 38.9542 29.5518 38.9542H39.161C39.6435 38.9542 40.0346 38.563 40.0346 38.0806C40.0346 37.5982 39.6435 37.207 39.161 37.207Z" fill="white"/>
<path d="M39.161 50.3105H29.5518C29.0694 50.3105 28.6782 50.7017 28.6782 51.1841C28.6782 51.6665 29.0694 52.0577 29.5518 52.0577H39.161C39.6435 52.0577 40.0346 51.6665 40.0346 51.1841C40.0346 50.7017 39.6435 50.3105 39.161 50.3105Z" fill="white"/>
<path d="M25.184 21.4829H21.6897V20.6093C21.6897 20.1269 21.2985 19.7357 20.8161 19.7357C20.3337 19.7357 19.9425 20.1269 19.9425 20.6093V21.4829H16.4483C15.9659 21.4829 15.5747 21.874 15.5747 22.3564C15.5747 22.8388 15.9659 23.23 16.4483 23.23H22.2914C21.97 24.1531 21.5013 25.0181 20.9035 25.7914C20.4994 25.3881 20.1278 24.9533 19.7924 24.4915C19.5233 24.093 18.9828 23.9869 18.5831 24.254C18.1833 24.5212 18.0745 25.0609 18.3397 25.4618C18.7418 26.0289 19.1922 26.56 19.6855 27.049C18.9052 27.7003 18.0086 28.1984 17.043 28.5165C16.5847 28.669 16.3367 29.1643 16.4892 29.6225C16.6416 30.0812 17.1369 30.3288 17.5952 30.1763C18.8474 29.7668 20.0037 29.109 20.9951 28.2416C21.8983 28.9759 22.8791 29.6096 23.92 30.1311C24.3517 30.3467 24.8766 30.1716 25.0923 29.7395C25.3079 29.3078 25.1328 28.7829 24.7007 28.5673C23.8178 28.1219 22.9844 27.5849 22.2138 26.9652C23.085 25.8549 23.7336 24.5863 24.1236 23.2299H25.1839C25.6663 23.2299 26.0575 22.8387 26.0575 22.3563C26.0575 21.8739 25.6663 21.4828 25.1839 21.4828L25.184 21.4829Z" fill="white"/>
<path d="M21.6018 33.3224C21.4376 33.047 21.1404 32.8782 20.8198 32.8782C20.4993 32.8782 20.2021 33.047 20.0379 33.3224L15.6701 42.0581C15.5667 42.2651 15.5496 42.5054 15.6233 42.7253C15.6966 42.9449 15.8542 43.1266 16.0616 43.2304C16.4933 43.446 17.0183 43.2709 17.2339 42.8388L20.8155 35.6662L22.4597 38.9542H20.8155C20.3331 38.9542 19.942 39.3453 19.942 39.8277C19.942 40.3101 20.3331 40.7013 20.8155 40.7013H23.3333L24.4019 42.8388H24.4015C24.6171 43.2709 25.1421 43.446 25.5737 43.2304C26.0058 43.0147 26.181 42.4898 25.9653 42.0581L21.6018 33.3224Z" fill="white"/>
<path d="M24.3103 54.6783H19.9425C19.3181 54.6783 18.7413 54.3453 18.4294 53.8048C18.1174 53.2643 18.1174 52.5982 18.4294 52.0576C18.7413 51.5171 19.3181 51.1841 19.9425 51.1841H23.4368C23.9192 51.1841 24.3103 50.7929 24.3103 50.3105C24.3103 49.8281 23.9192 49.4369 23.4368 49.4369H21.6896C21.3729 49.4369 21.0808 49.2653 20.9268 48.9885C20.7728 48.7116 20.7806 48.373 20.9471 48.104C21.1136 47.8345 21.4131 47.6765 21.7294 47.6906C22.0461 47.705 22.33 47.8895 22.4715 48.173C22.6872 48.6043 23.2121 48.7794 23.6438 48.5634C24.0751 48.3473 24.2502 47.8228 24.0342 47.3911C23.6189 46.5982 22.8272 46.0725 21.9356 45.9965C21.0437 45.9208 20.1748 46.3049 19.6312 47.0159C19.0876 47.7268 18.9444 48.6663 19.2514 49.5067C18.1098 49.7388 17.1587 50.5242 16.7157 51.6013C16.2723 52.6784 16.3948 53.9057 17.0425 54.874C17.6899 55.842 18.7776 56.4238 19.9425 56.4254H24.3103C24.7927 56.4254 25.1839 56.0342 25.1839 55.5518C25.1839 55.0694 24.7927 54.6782 24.3103 54.6782L24.3103 54.6783Z" fill="white"/>
</svg>
