<svg width="72" height="72" viewBox="0 0 72 72" fill="none" xmlns="http://www.w3.org/2000/svg">
<rect width="72" height="72" rx="16" fill="#6D70C6"/>
<path d="M60.1945 18.4598L36.001 9.6028C35.8218 9.51423 35.553 9.51423 35.3738 9.6028L11.1802 18.4598C10.9114 18.5484 10.6426 18.9027 10.6426 19.257C10.6426 19.6112 10.9114 19.9655 11.2698 20.0541L19.6032 23.154V28.114C19.6032 28.2911 19.6032 28.3797 19.6928 28.5568C19.7824 28.6454 20.2304 29.5311 21.3953 30.5939C21.3953 30.6825 21.3057 30.7711 21.3057 30.8597V30.9482C18.7967 31.3911 16.8254 33.5168 16.8254 36.1739C16.8254 38.831 18.7967 40.9567 21.3057 41.3995V41.4881C21.3057 41.5767 21.3057 41.5767 21.3057 41.6652C21.3057 41.7538 22.0225 46.1823 25.3379 49.7251C20.5888 52.0279 16.7358 55.925 14.4956 60.7078C14.406 60.9735 14.406 61.3278 14.5852 61.5935C14.7644 61.8592 15.0333 62.0364 15.3021 62.0364H37.4347H55.9831C56.2519 62.0364 56.6103 61.8592 56.6999 61.5935C56.7895 61.3278 56.8791 61.0621 56.7895 60.7078C54.5494 55.925 50.6963 52.1165 45.9472 49.7251C49.173 46.1823 49.9795 41.7538 49.9795 41.6652C49.9795 41.5767 49.9795 41.5767 49.9795 41.4881V41.3995C52.4885 40.9567 54.4598 38.831 54.4598 36.1739C54.4598 33.5168 52.4885 31.3911 49.9795 30.9482V30.8597C49.9795 30.7711 49.9795 30.6825 49.8899 30.5939C51.0548 29.5311 51.5924 28.734 51.5924 28.5568C51.682 28.3797 51.682 28.2911 51.682 28.114V23.154L55.2662 21.8255V29.1768C54.191 29.5311 53.4741 30.5054 53.4741 31.6568C53.4741 33.1625 54.639 34.3139 56.1623 34.3139C57.6856 34.3139 58.8505 33.1625 58.8505 31.6568C58.8505 30.5054 58.1336 29.5311 57.0583 29.1768V21.2055L60.0153 20.1427C60.3738 20.0541 60.6426 19.6998 60.6426 19.3455C60.6426 18.9912 60.553 18.5484 60.1945 18.4598ZM56.3415 32.5425C55.8039 32.5425 55.4454 32.1882 55.4454 31.6568C55.4454 31.1254 55.8039 30.7711 56.3415 30.7711C56.8791 30.7711 57.2376 31.1254 57.2376 31.6568C57.2376 32.1882 56.8791 32.5425 56.3415 32.5425ZM23.1874 31.9225C24.2626 32.6311 25.5171 33.3396 27.13 33.871C26.5028 34.6682 25.1587 35.731 23.1874 35.9967V31.9225ZM18.7071 36.0853C18.7071 34.4025 19.872 33.0739 21.3953 32.6311V39.451C19.872 39.0967 18.7071 37.7681 18.7071 36.0853ZM26.7716 50.8765C28.2053 52.0279 29.9974 53.0022 32.2376 53.4451L35.9114 59.9993H16.7358C19.0655 55.925 22.5601 52.7365 26.7716 50.8765ZM34.5673 53.7993C34.9257 53.7993 35.3738 53.7993 35.7322 53.7993C36.0906 53.7993 36.449 53.7993 36.8971 53.7993L35.7322 55.7479L34.5673 53.7993ZM54.639 59.9993H38.0619L36.6282 57.5193L39.1372 53.4451C41.3773 53.0022 43.1695 52.0279 44.6032 50.8765C48.9042 52.7365 52.3988 55.925 54.639 59.9993ZM48.277 41.3109C48.0978 42.2852 46.2161 52.0279 35.7322 52.0279C25.3379 52.0279 23.3666 42.2852 23.1874 41.3109V37.7681C26.5028 37.4139 28.2949 35.3767 29.0118 34.4025C29.8182 34.5796 30.6247 34.7567 31.5207 34.9339C31.9687 35.6425 34.6569 39.1853 39.1372 39.9824C39.7644 40.071 40.3917 40.1595 41.0189 40.1595H41.1085V40.6024C41.1085 41.1338 41.4669 41.4881 42.0046 41.4881C42.5422 41.4881 42.9006 41.1338 42.9006 40.6024V39.9824C44.6928 39.7167 46.4849 38.9196 48.277 37.8567V41.3109ZM48.277 35.6425C45.2304 37.8567 42.1838 38.7424 39.4956 38.211C36.9867 37.7681 35.1049 36.2624 34.0297 35.111C34.5673 35.111 35.1945 35.1996 35.7322 35.1996C41.8254 35.1996 45.768 33.6053 48.277 31.9225V35.6425ZM52.7573 36.0853C52.7573 37.7681 51.5924 39.0967 50.0691 39.5395V32.7196C51.5924 33.0739 52.7573 34.4025 52.7573 36.0853ZM50.0691 27.8483C49.3523 28.8225 45.6784 33.4282 35.7322 33.4282C25.7859 33.4282 22.1121 28.8225 21.3953 27.8483V23.774L35.4634 28.9111C35.553 28.9111 35.6426 28.9997 35.7322 28.9997C35.8218 28.9997 35.9114 28.9997 36.001 28.9111L50.0691 23.774V27.8483ZM35.7322 27.1397L14.1372 19.257L35.7322 11.3742L57.3272 19.257L35.7322 27.1397Z" fill="white"/>
<path d="M29.0801 37.0364C28.5176 37.0364 28.1426 37.4114 28.1426 37.9739V39.8489C28.1426 40.4114 28.5176 40.7864 29.0801 40.7864C29.6426 40.7864 30.0176 40.4114 30.0176 39.8489V37.9739C30.0176 37.4114 29.6426 37.0364 29.0801 37.0364ZM40.6113 45.5676C40.1426 45.3801 39.5801 45.6614 39.3926 46.1301C39.3926 46.1301 38.6426 48.2864 35.5488 48.2864C32.5488 48.2864 31.7988 46.2239 31.7051 46.1301C31.5176 45.6614 31.0488 45.3801 30.4863 45.5676C30.0176 45.7551 29.7363 46.2239 29.9238 46.7864C30.0176 46.9739 31.1426 50.2551 35.4551 50.2551C39.7676 50.2551 40.9863 46.9739 40.9863 46.7864C41.3613 46.2239 41.0801 45.6614 40.6113 45.5676Z" fill="white"/>
</svg>
