<svg width="73" height="72" viewBox="0 0 73 72" fill="none" xmlns="http://www.w3.org/2000/svg">
<rect x="0.75" width="72" height="72" rx="16" fill="#F8763F"/>
<path d="M62.0277 57.8002H59.8003L59.7999 36.1389C59.7999 33.8402 58.0682 31.9705 55.9376 31.9705H50.6959L51.394 30.2235C51.5826 29.7475 51.4391 29.1941 51.0485 28.8931L37.7681 18.6944L37.7677 17.176C38.7812 17.2589 40.0537 17.4086 40.5565 17.7817C40.7235 17.9044 40.889 18.0469 41.0657 18.1962C42.0825 19.067 43.6289 20.3793 46.8084 20.0136C47.3242 19.954 47.7186 19.4836 47.7186 18.921V12.2793C47.7186 11.9675 47.5948 11.67 47.3798 11.4608C47.1643 11.2515 46.874 11.1489 46.5899 11.1851C44.1087 11.47 43.1299 10.5903 42.1831 9.73757C42.0363 9.60598 41.8957 9.47961 41.7556 9.3625C41.485 9.13554 40.6602 8.44134 36.7912 8.26625C36.5139 8.25538 36.2437 8.36364 36.0447 8.57088C35.846 8.77813 35.7308 9.06507 35.7308 9.36407V18.6924L22.4504 28.8911C22.0598 29.1922 21.9193 29.7459 22.1049 30.2216L22.8041 31.9706H17.5643C15.4387 31.9706 13.7055 33.8402 13.7055 36.1389V57.8003H11.4776C10.9133 57.8003 10.4575 58.2925 10.4575 58.9002C10.4575 59.5078 10.9134 60 11.4776 60H62.0248C62.5858 60 63.0416 59.5079 63.0416 58.9002C63.042 58.2925 62.5876 57.8003 62.0266 57.8003L62.0277 57.8002ZM37.7684 10.5317C39.5486 10.6814 40.335 10.9555 40.5088 11.0996C40.6292 11.2022 40.7525 11.3125 40.8811 11.4275C41.788 12.2441 43.1018 13.4288 45.6818 13.4377V17.8782C43.9669 17.8673 43.1353 17.1586 42.3287 16.4701C42.1166 16.2882 41.9113 16.1167 41.7092 15.967C40.8091 15.2962 39.3998 15.0998 37.7703 14.9718V10.5318L37.7684 10.5317ZM41.419 57.8002H37.7688V47.3744C37.7688 46.7668 37.3163 46.2746 36.752 46.2746C36.1877 46.2746 35.7352 46.7667 35.7352 47.3744V57.8002H32.0851V42.8652H41.4193L41.419 57.8002ZM42.4358 40.6656H31.0656C30.5013 40.6656 30.0489 41.1578 30.0489 41.7655V57.7998H15.7418V36.1384C15.7418 35.0531 16.5599 34.1698 17.5651 34.1698H24.3514C24.6936 34.1698 25.0126 33.9823 25.2031 33.6756C25.3917 33.3653 25.4219 32.9762 25.2881 32.6353L24.3063 30.1689L36.7518 20.6119L49.1973 30.1708L48.2155 32.6353C48.0821 32.9762 48.1137 33.3653 48.3038 33.6756C48.4891 33.9839 48.813 34.1698 49.1555 34.1698H55.94C56.9452 34.1698 57.7634 35.0531 57.7634 36.1384V57.7998H43.4563V41.7655C43.4551 41.1578 43.0008 40.6656 42.4364 40.6656H42.4358Z" fill="white"/>
<path d="M23.5548 37.4421H18.3098C17.7454 37.4421 17.293 37.9343 17.293 38.542V54.157C17.293 54.7627 17.7455 55.2569 18.3098 55.2569H23.5548C24.1158 55.2569 24.5716 54.7647 24.5716 54.157V38.542C24.5716 37.9343 24.1158 37.4421 23.5548 37.4421ZM19.3269 44.8464H22.5332V47.8518H19.3269V44.8464ZM19.3269 39.6415H22.5332V42.6468H19.3269V39.6415ZM22.5328 53.057H19.3265V50.0516H22.5328V53.057Z" fill="white"/>
<path d="M49.9503 55.2565H55.192C55.7564 55.2565 56.2088 54.7643 56.2088 54.1567V38.5416C56.2088 37.934 55.7563 37.4418 55.192 37.4418H49.9503C49.386 37.4418 48.9302 37.9339 48.9302 38.5416V54.1567C48.9302 54.7623 49.386 55.2565 49.9503 55.2565V55.2565ZM54.1748 47.8518H50.9685V44.8465H54.1748V47.8518ZM54.1748 53.0568H50.9685V50.0514H54.1748V53.0568ZM50.9689 39.6413H54.1752V42.6466H50.9689V39.6413Z" fill="white"/>
<path d="M36.7512 24.5546C33.7739 24.5546 31.3511 27.1704 31.3511 30.385C31.3511 33.5996 33.7739 36.2154 36.7512 36.2154C39.7286 36.2154 42.1513 33.5996 42.1513 30.385C42.1513 27.1704 39.7286 24.5546 36.7512 24.5546V24.5546ZM36.7512 34.0161C34.8995 34.0161 33.3881 32.3882 33.3881 30.385C33.3881 28.3837 34.8976 26.7539 36.7512 26.7539C38.6062 26.7539 40.1177 28.3837 40.1177 30.385C40.1177 32.3878 38.6062 34.0161 36.7512 34.0161Z" fill="white"/>
</svg>
